<svg width="1920" height="1080" viewBox="0 0 1920 1080" xmlns="http://www.w3.org/2000/svg">
  <!-- Background Gradient -->
  <defs>
    <linearGradient id="mainGradient" x1="0%" y1="0%" x2="100%" y2="100%">
      <stop offset="0%" style="stop-color:#0f2557;stop-opacity:1" />
      <stop offset="50%" style="stop-color:#1e3fae;stop-opacity:1" />
      <stop offset="100%" style="stop-color:#4f46e5;stop-opacity:1" />
    </linearGradient>
    <linearGradient id="accentGlow" x1="0%" y1="0%" x2="100%" y2="100%">
      <stop offset="0%" style="stop-color:#60a5fa;stop-opacity:0.4" />
      <stop offset="100%" style="stop-color:#a78bfa;stop-opacity:0.3" />
    </linearGradient>
    <filter id="glow">
      <feGaussianBlur stdDeviation="4" result="coloredBlur"/>
      <feMerge>
        <feMergeNode in="coloredBlur"/>
        <feMergeNode in="SourceGraphic"/>
      </feMerge>
    </filter>
  </defs>
  
  <!-- Background -->
  <rect width="1920" height="1080" fill="url(#mainGradient)"/>
  
  <!-- Decorative Elements -->
  <circle cx="200" cy="200" r="300" fill="url(#accentGlow)" opacity="0.2"/>
  <circle cx="1720" cy="880" r="350" fill="url(#accentGlow)" opacity="0.15"/>
  <circle cx="1600" cy="200" r="200" fill="url(#accentGlow)" opacity="0.1"/>
  
  <!-- Grid Pattern -->
  <g opacity="0.03">
    <line x1="0" y1="270" x2="1920" y2="270" stroke="white" stroke-width="1"/>
    <line x1="0" y1="540" x2="1920" y2="540" stroke="white" stroke-width="1"/>
    <line x1="0" y1="810" x2="1920" y2="810" stroke="white" stroke-width="1"/>
    <line x1="480" y1="0" x2="480" y2="1080" stroke="white" stroke-width="1"/>
    <line x1="960" y1="0" x2="960" y2="1080" stroke="white" stroke-width="1"/>
    <line x1="1440" y1="0" x2="1440" y2="1080" stroke="white" stroke-width="1"/>
  </g>
  
  <!-- Medical Icon with Glow -->
  <g transform="translate(200, 350)" filter="url(#glow)">
    <rect x="0" y="0" width="140" height="140" rx="24" fill="white" opacity="0.95"/>
    <path d="M 70 35 L 70 105 M 35 70 L 105 70" stroke="#1e3fae" stroke-width="14" stroke-linecap="round"/>
    <circle cx="70" cy="70" r="50" fill="none" stroke="#4f46e5" stroke-width="5" opacity="0.4"/>
  </g>
  
  <!-- Main Content -->
  <g transform="translate(400, 380)">
    <!-- Logo Text -->
    <text x="0" y="0" font-family="Inter, Arial, sans-serif" font-size="120" font-weight="900" fill="white" letter-spacing="-0.02em">
      MEDIHUB
    </text>
    
    <!-- Tagline -->
    <text x="0" y="80" font-family="Inter, Arial, sans-serif" font-size="42" font-weight="600" fill="white" opacity="0.9">
      Your Health, Our Priority
    </text>
    
    <!-- Description -->
    <text x="0" y="150" font-family="Inter, Arial, sans-serif" font-size="28" font-weight="400" fill="white" opacity="0.8">
      Modern Hospital Management System
    </text>
    
    <!-- Feature Pills -->
    <g transform="translate(0, 210)">
      <!-- Pill 1 -->
      <rect x="0" y="0" width="240" height="60" rx="30" fill="white" opacity="0.15"/>
      <text x="120" y="40" font-family="Inter, Arial, sans-serif" font-size="22" font-weight="700" fill="white" text-anchor="middle">
        ✓ Appointments
      </text>
      
      <!-- Pill 2 -->
      <rect x="260" y="0" width="280" height="60" rx="30" fill="white" opacity="0.15"/>
      <text x="400" y="40" font-family="Inter, Arial, sans-serif" font-size="22" font-weight="700" fill="white" text-anchor="middle">
        ✓ Queue Management
      </text>
      
      <!-- Pill 3 -->
      <rect x="560" y="0" width="240" height="60" rx="30" fill="white" opacity="0.15"/>
      <text x="680" y="40" font-family="Inter, Arial, sans-serif" font-size="22" font-weight="700" fill="white" text-anchor="middle">
        ✓ Patient Records
      </text>
    </g>
  </g>
  
  <!-- Tech Stack -->
  <g transform="translate(400, 780)">
    <text x="0" y="0" font-family="Inter, Arial, sans-serif" font-size="24" font-weight="600" fill="white" opacity="0.7">
      Built with Node.js • Express.js • Firebase • Bootstrap 5
    </text>
  </g>
  
  <!-- Live Demo Badge -->
  <g transform="translate(400, 850)">
    <rect x="0" y="0" width="280" height="70" rx="12" fill="#10b981" filter="url(#glow)"/>
    <text x="140" y="46" font-family="Inter, Arial, sans-serif" font-size="28" font-weight="800" fill="white" text-anchor="middle">
      🚀 Live Demo
    </text>
  </g>
  
  <!-- GitHub Link -->
  <g transform="translate(700, 850)">
    <text x="0" y="46" font-family="Inter, Arial, sans-serif" font-size="22" font-weight="600" fill="white" opacity="0.8">
      github.com/AbhishekS200607/MEDIHUB
    </text>
  </g>
  
  <!-- Decorative Dashboard Preview (Right Side) -->
  <g transform="translate(1300, 250)" opacity="0.3">
    <!-- Dashboard Card 1 -->
    <rect x="0" y="0" width="500" height="180" rx="16" fill="white" opacity="0.1"/>
    <rect x="30" y="30" width="120" height="120" rx="12" fill="white" opacity="0.2"/>
    <rect x="180" y="40" width="280" height="30" rx="8" fill="white" opacity="0.15"/>
    <rect x="180" y="90" width="200" height="30" rx="8" fill="white" opacity="0.15"/>
    
    <!-- Dashboard Card 2 -->
    <rect x="0" y="220" width="500" height="180" rx="16" fill="white" opacity="0.1"/>
    <rect x="30" y="250" width="120" height="120" rx="12" fill="white" opacity="0.2"/>
    <rect x="180" y="260" width="280" height="30" rx="8" fill="white" opacity="0.15"/>
    <rect x="180" y="310" width="200" height="30" rx="8" fill="white" opacity="0.15"/>
    
    <!-- Dashboard Card 3 -->
    <rect x="0" y="440" width="500" height="180" rx="16" fill="white" opacity="0.1"/>
    <rect x="30" y="470" width="120" height="120" rx="12" fill="white" opacity="0.2"/>
    <rect x="180" y="480" width="280" height="30" rx="8" fill="white" opacity="0.15"/>
    <rect x="180" y="530" width="200" height="30" rx="8" fill="white" opacity="0.15"/>
  </g>
  
  <!-- Bottom Branding -->
  <g transform="translate(960, 1020)">
    <text x="0" y="0" font-family="Inter, Arial, sans-serif" font-size="18" font-weight="500" fill="white" opacity="0.5" text-anchor="middle">
      Production-Ready Hospital Management Solution
    </text>
  </g>
</svg>
